<mxfile host="app.diagrams.net" modified="2023-07-31T14:13:09.739Z" agent="Mozilla/5.0 (Macintosh; Intel Mac OS X 10_15_7) AppleWebKit/537.36 (KHTML, like Gecko) Chrome/115.0.0.0 Safari/537.36" etag="b-WsrmfdR-_ka4DAe067" version="21.6.2" type="github">
  <diagram name="第 1 页" id="qfbuZ7S0gQxop9fpCmDY">
    <mxGraphModel dx="2392" dy="962" grid="1" gridSize="10" guides="1" tooltips="1" connect="1" arrows="1" fold="1" page="1" pageScale="1" pageWidth="827" pageHeight="1169" math="0" shadow="0">
      <root>
        <mxCell id="0" />
        <mxCell id="1" parent="0" />
        <mxCell id="sJMNk4_9vb0r3rnGWu_t-3" style="edgeStyle=orthogonalEdgeStyle;rounded=0;orthogonalLoop=1;jettySize=auto;html=1;entryX=0;entryY=0.5;entryDx=0;entryDy=0;" parent="1" source="sJMNk4_9vb0r3rnGWu_t-2" target="sJMNk4_9vb0r3rnGWu_t-22" edge="1">
          <mxGeometry relative="1" as="geometry">
            <mxPoint x="260" y="240" as="targetPoint" />
          </mxGeometry>
        </mxCell>
        <mxCell id="sJMNk4_9vb0r3rnGWu_t-2" value="认领" style="rounded=1;whiteSpace=wrap;html=1;" parent="1" vertex="1">
          <mxGeometry x="-70" y="210" width="120" height="60" as="geometry" />
        </mxCell>
        <mxCell id="sJMNk4_9vb0r3rnGWu_t-5" style="edgeStyle=orthogonalEdgeStyle;rounded=0;orthogonalLoop=1;jettySize=auto;html=1;entryX=0;entryY=0.5;entryDx=0;entryDy=0;" parent="1" source="sJMNk4_9vb0r3rnGWu_t-4" target="sJMNk4_9vb0r3rnGWu_t-10" edge="1">
          <mxGeometry relative="1" as="geometry">
            <mxPoint x="450" y="240" as="targetPoint" />
          </mxGeometry>
        </mxCell>
        <mxCell id="sJMNk4_9vb0r3rnGWu_t-14" value="是" style="edgeLabel;html=1;align=center;verticalAlign=middle;resizable=0;points=[];" parent="sJMNk4_9vb0r3rnGWu_t-5" vertex="1" connectable="0">
          <mxGeometry x="-0.0759" relative="1" as="geometry">
            <mxPoint as="offset" />
          </mxGeometry>
        </mxCell>
        <mxCell id="sJMNk4_9vb0r3rnGWu_t-13" value="否" style="edgeStyle=orthogonalEdgeStyle;rounded=0;orthogonalLoop=1;jettySize=auto;html=1;" parent="1" source="sJMNk4_9vb0r3rnGWu_t-4" edge="1">
          <mxGeometry relative="1" as="geometry">
            <mxPoint x="305" y="340" as="targetPoint" />
          </mxGeometry>
        </mxCell>
        <mxCell id="sJMNk4_9vb0r3rnGWu_t-4" value="count &amp;lt; 2" style="rhombus;whiteSpace=wrap;html=1;" parent="1" vertex="1">
          <mxGeometry x="260" y="200" width="90" height="80" as="geometry" />
        </mxCell>
        <mxCell id="sJMNk4_9vb0r3rnGWu_t-11" style="edgeStyle=orthogonalEdgeStyle;rounded=0;orthogonalLoop=1;jettySize=auto;html=1;" parent="1" source="sJMNk4_9vb0r3rnGWu_t-10" edge="1">
          <mxGeometry relative="1" as="geometry">
            <mxPoint x="647.5" y="240" as="targetPoint" />
          </mxGeometry>
        </mxCell>
        <mxCell id="sJMNk4_9vb0r3rnGWu_t-10" value="认领成功" style="rounded=1;whiteSpace=wrap;html=1;" parent="1" vertex="1">
          <mxGeometry x="457.5" y="210" width="120" height="60" as="geometry" />
        </mxCell>
        <mxCell id="sJMNk4_9vb0r3rnGWu_t-12" value="count + 1&lt;br&gt;记录人+认领时间" style="rounded=1;whiteSpace=wrap;html=1;" parent="1" vertex="1">
          <mxGeometry x="647.5" y="210" width="120" height="60" as="geometry" />
        </mxCell>
        <mxCell id="sJMNk4_9vb0r3rnGWu_t-32" style="edgeStyle=orthogonalEdgeStyle;rounded=0;orthogonalLoop=1;jettySize=auto;html=1;entryX=0.007;entryY=0.577;entryDx=0;entryDy=0;entryPerimeter=0;" parent="1" source="sJMNk4_9vb0r3rnGWu_t-16" target="sJMNk4_9vb0r3rnGWu_t-33" edge="1">
          <mxGeometry relative="1" as="geometry">
            <mxPoint x="305" y="510" as="targetPoint" />
            <Array as="points">
              <mxPoint x="305" y="495" />
            </Array>
          </mxGeometry>
        </mxCell>
        <mxCell id="sJMNk4_9vb0r3rnGWu_t-34" value="否" style="edgeLabel;html=1;align=center;verticalAlign=middle;resizable=0;points=[];" parent="sJMNk4_9vb0r3rnGWu_t-32" vertex="1" connectable="0">
          <mxGeometry x="-0.072" y="-2" relative="1" as="geometry">
            <mxPoint as="offset" />
          </mxGeometry>
        </mxCell>
        <mxCell id="sJMNk4_9vb0r3rnGWu_t-16" value="(当前时间-上次认领时间) ≥ 3" style="rhombus;whiteSpace=wrap;html=1;" parent="1" vertex="1">
          <mxGeometry x="252.5" y="340" width="105" height="100" as="geometry" />
        </mxCell>
        <mxCell id="sJMNk4_9vb0r3rnGWu_t-17" style="edgeStyle=orthogonalEdgeStyle;rounded=0;orthogonalLoop=1;jettySize=auto;html=1;" parent="1" edge="1">
          <mxGeometry relative="1" as="geometry">
            <mxPoint x="457.5" y="390" as="targetPoint" />
            <mxPoint x="357.5" y="390" as="sourcePoint" />
          </mxGeometry>
        </mxCell>
        <mxCell id="sJMNk4_9vb0r3rnGWu_t-18" value="是" style="edgeLabel;html=1;align=center;verticalAlign=middle;resizable=0;points=[];" parent="sJMNk4_9vb0r3rnGWu_t-17" vertex="1" connectable="0">
          <mxGeometry x="-0.0759" relative="1" as="geometry">
            <mxPoint as="offset" />
          </mxGeometry>
        </mxCell>
        <mxCell id="sJMNk4_9vb0r3rnGWu_t-19" style="edgeStyle=orthogonalEdgeStyle;rounded=0;orthogonalLoop=1;jettySize=auto;html=1;" parent="1" source="sJMNk4_9vb0r3rnGWu_t-20" edge="1">
          <mxGeometry relative="1" as="geometry">
            <mxPoint x="647.5" y="390" as="targetPoint" />
          </mxGeometry>
        </mxCell>
        <mxCell id="sJMNk4_9vb0r3rnGWu_t-20" value="认领成功" style="rounded=1;whiteSpace=wrap;html=1;" parent="1" vertex="1">
          <mxGeometry x="457.5" y="360" width="120" height="60" as="geometry" />
        </mxCell>
        <mxCell id="sJMNk4_9vb0r3rnGWu_t-21" value="count = 1&lt;br&gt;记录人+认领时间" style="rounded=1;whiteSpace=wrap;html=1;" parent="1" vertex="1">
          <mxGeometry x="647.5" y="360" width="120" height="60" as="geometry" />
        </mxCell>
        <mxCell id="sJMNk4_9vb0r3rnGWu_t-23" style="edgeStyle=orthogonalEdgeStyle;rounded=0;orthogonalLoop=1;jettySize=auto;html=1;entryX=0;entryY=0.5;entryDx=0;entryDy=0;" parent="1" source="sJMNk4_9vb0r3rnGWu_t-22" target="sJMNk4_9vb0r3rnGWu_t-4" edge="1">
          <mxGeometry relative="1" as="geometry" />
        </mxCell>
        <mxCell id="sJMNk4_9vb0r3rnGWu_t-24" value="是" style="edgeLabel;html=1;align=center;verticalAlign=middle;resizable=0;points=[];" parent="sJMNk4_9vb0r3rnGWu_t-23" vertex="1" connectable="0">
          <mxGeometry x="-0.1431" relative="1" as="geometry">
            <mxPoint as="offset" />
          </mxGeometry>
        </mxCell>
        <mxCell id="sJMNk4_9vb0r3rnGWu_t-28" value="否" style="edgeStyle=orthogonalEdgeStyle;rounded=0;orthogonalLoop=1;jettySize=auto;html=1;entryX=-0.006;entryY=0.601;entryDx=0;entryDy=0;entryPerimeter=0;" parent="1" source="sJMNk4_9vb0r3rnGWu_t-22" target="sJMNk4_9vb0r3rnGWu_t-26" edge="1">
          <mxGeometry relative="1" as="geometry">
            <Array as="points">
              <mxPoint x="160" y="600" />
              <mxPoint x="457" y="600" />
            </Array>
          </mxGeometry>
        </mxCell>
        <mxCell id="sJMNk4_9vb0r3rnGWu_t-22" value="与上次认领人是否一致" style="rhombus;whiteSpace=wrap;html=1;" parent="1" vertex="1">
          <mxGeometry x="120" y="200" width="80" height="80" as="geometry" />
        </mxCell>
        <mxCell id="sJMNk4_9vb0r3rnGWu_t-25" style="edgeStyle=orthogonalEdgeStyle;rounded=0;orthogonalLoop=1;jettySize=auto;html=1;" parent="1" source="sJMNk4_9vb0r3rnGWu_t-26" edge="1">
          <mxGeometry relative="1" as="geometry">
            <mxPoint x="647.5" y="600" as="targetPoint" />
          </mxGeometry>
        </mxCell>
        <mxCell id="sJMNk4_9vb0r3rnGWu_t-26" value="认领成功" style="rounded=1;whiteSpace=wrap;html=1;" parent="1" vertex="1">
          <mxGeometry x="457.5" y="570" width="120" height="60" as="geometry" />
        </mxCell>
        <mxCell id="sJMNk4_9vb0r3rnGWu_t-27" value="count = 1&lt;br&gt;记录人+认领时间" style="rounded=1;whiteSpace=wrap;html=1;" parent="1" vertex="1">
          <mxGeometry x="647.5" y="570" width="120" height="60" as="geometry" />
        </mxCell>
        <mxCell id="sJMNk4_9vb0r3rnGWu_t-31" style="edgeStyle=orthogonalEdgeStyle;rounded=0;orthogonalLoop=1;jettySize=auto;html=1;entryX=0;entryY=0.5;entryDx=0;entryDy=0;" parent="1" source="sJMNk4_9vb0r3rnGWu_t-29" target="sJMNk4_9vb0r3rnGWu_t-30" edge="1">
          <mxGeometry relative="1" as="geometry">
            <mxPoint x="630" y="750" as="targetPoint" />
          </mxGeometry>
        </mxCell>
        <mxCell id="sJMNk4_9vb0r3rnGWu_t-29" value="其他操作" style="rounded=1;whiteSpace=wrap;html=1;" parent="1" vertex="1">
          <mxGeometry x="-70" y="680" width="120" height="60" as="geometry" />
        </mxCell>
        <mxCell id="sJMNk4_9vb0r3rnGWu_t-30" value="count = 0&lt;br&gt;清除" style="rounded=1;whiteSpace=wrap;html=1;" parent="1" vertex="1">
          <mxGeometry x="647.5" y="680" width="120" height="60" as="geometry" />
        </mxCell>
        <mxCell id="sJMNk4_9vb0r3rnGWu_t-33" value="认领失败" style="rounded=1;whiteSpace=wrap;html=1;" parent="1" vertex="1">
          <mxGeometry x="457.5" y="460" width="120" height="60" as="geometry" />
        </mxCell>
        <mxCell id="sJMNk4_9vb0r3rnGWu_t-38" value="&lt;br&gt;&lt;br&gt;A&lt;span style=&quot;border-color: var(--border-color); text-align: center;&quot;&gt;&lt;span style=&quot;white-space: pre;&quot;&gt;&amp;nbsp;&amp;nbsp;&amp;nbsp;&amp;nbsp;&lt;/span&gt;&lt;/span&gt;&lt;span style=&quot;text-align: center;&quot;&gt;07:00&lt;/span&gt;&lt;br style=&quot;border-color: var(--border-color); text-align: center;&quot;&gt;&lt;span style=&quot;text-align: center;&quot;&gt;A&lt;/span&gt;&lt;span style=&quot;border-color: var(--border-color); text-align: center;&quot;&gt;&lt;span style=&quot;white-space: pre;&quot;&gt;&amp;nbsp;&amp;nbsp;&amp;nbsp;&amp;nbsp;&lt;/span&gt;&lt;/span&gt;&lt;span style=&quot;text-align: center;&quot;&gt;09:00&lt;/span&gt;&lt;br style=&quot;border-color: var(--border-color); text-align: center;&quot;&gt;&lt;span style=&quot;text-align: center;&quot;&gt;B&lt;/span&gt;&lt;span style=&quot;border-color: var(--border-color); text-align: center;&quot;&gt;&lt;span style=&quot;white-space: pre;&quot;&gt;&amp;nbsp;&amp;nbsp;&amp;nbsp;&amp;nbsp;&lt;/span&gt;&lt;/span&gt;&lt;span style=&quot;text-align: center;&quot;&gt;11:00&lt;/span&gt;&lt;br style=&quot;border-color: var(--border-color); text-align: center;&quot;&gt;&lt;span style=&quot;text-align: center;&quot;&gt;A&lt;/span&gt;&lt;span style=&quot;border-color: var(--border-color); text-align: center;&quot;&gt;&lt;span style=&quot;white-space: pre;&quot;&gt;&amp;nbsp;&amp;nbsp;&amp;nbsp;&amp;nbsp;&lt;/span&gt;&lt;/span&gt;&lt;span style=&quot;text-align: center;&quot;&gt;13:00&lt;/span&gt;&lt;br style=&quot;border-color: var(--border-color); text-align: center;&quot;&gt;&lt;span style=&quot;text-align: center;&quot;&gt;A&lt;/span&gt;&lt;span style=&quot;border-color: var(--border-color); text-align: center;&quot;&gt;&lt;span style=&quot;white-space: pre;&quot;&gt;&amp;nbsp;&amp;nbsp;&amp;nbsp;&amp;nbsp;&lt;/span&gt;&lt;/span&gt;&lt;span style=&quot;text-align: center;&quot;&gt;15:00&lt;/span&gt;&lt;br style=&quot;border-color: var(--border-color); text-align: center;&quot;&gt;&lt;span style=&quot;text-align: center;&quot;&gt;A&lt;/span&gt;&lt;span style=&quot;border-color: var(--border-color); text-align: center;&quot;&gt;&lt;span style=&quot;white-space: pre;&quot;&gt;&amp;nbsp;&amp;nbsp;&amp;nbsp;&amp;nbsp;&lt;/span&gt;&lt;/span&gt;&lt;span style=&quot;text-align: center;&quot;&gt;17:00&lt;/span&gt;&lt;br style=&quot;border-color: var(--border-color); text-align: center;&quot;&gt;&lt;span style=&quot;text-align: center;&quot;&gt;A&lt;/span&gt;&lt;span style=&quot;border-color: var(--border-color); text-align: center;&quot;&gt;&lt;span style=&quot;white-space: pre;&quot;&gt;&amp;nbsp;&amp;nbsp;&amp;nbsp;&amp;nbsp;&lt;/span&gt;&lt;/span&gt;&lt;span style=&quot;text-align: center;&quot;&gt;18:00&lt;/span&gt;" style="text;html=1;strokeColor=none;fillColor=none;spacing=5;spacingTop=-20;whiteSpace=wrap;overflow=hidden;rounded=0;" parent="1" vertex="1">
          <mxGeometry x="-320" y="330" width="80" height="120" as="geometry" />
        </mxCell>
        <mxCell id="sJMNk4_9vb0r3rnGWu_t-41" value="&lt;br&gt;&lt;br&gt;&lt;blockquote style=&quot;border: none; text-align: center; margin: 0px 0px 0px 40px; padding: 0px;&quot;&gt;&lt;/blockquote&gt;A&lt;span style=&quot;white-space: pre;&quot;&gt;&#x9;&lt;/span&gt;成功，count=1，07:00&lt;br&gt;A&lt;span style=&quot;white-space: pre;&quot;&gt;&#x9;&lt;/span&gt;成功，count=2，09:00&lt;br&gt;B&lt;span style=&quot;white-space: pre;&quot;&gt;&#x9;&lt;/span&gt;成功，count=1，11:00&lt;br&gt;A&lt;span style=&quot;white-space: pre;&quot;&gt;&#x9;&lt;/span&gt;成功，count=1，13:00&lt;br&gt;A&lt;span style=&quot;white-space: pre;&quot;&gt;&#x9;&lt;/span&gt;成功，count=2，15:00&lt;br&gt;A&lt;span style=&quot;white-space: pre;&quot;&gt;&#x9;&lt;/span&gt;失败&lt;br&gt;A&lt;span style=&quot;white-space: pre;&quot;&gt;&#x9;&lt;/span&gt;成功，count=1，18:00" style="text;html=1;strokeColor=none;fillColor=none;spacing=5;spacingTop=-20;whiteSpace=wrap;overflow=hidden;rounded=0;" parent="1" vertex="1">
          <mxGeometry x="-200" y="330" width="190" height="120" as="geometry" />
        </mxCell>
      </root>
    </mxGraphModel>
  </diagram>
</mxfile>
